<?xml version="1.0" standalone="no"?>
<!DOCTYPE svg PUBLIC "-//W3C//DTD SVG 20010904//EN"
 "http://www.w3.org/TR/2001/REC-SVG-20010904/DTD/svg10.dtd">
<svg version="1.0" xmlns="http://www.w3.org/2000/svg"
 width="342.000000pt" height="342.000000pt" viewBox="0 0 342.000000 342.000000"
 preserveAspectRatio="xMidYMid meet">
<metadata>
Created by potrace 1.11, written by Peter Selinger 2001-2013
</metadata>
<g transform="translate(0.000000,342.000000) scale(0.100000,-0.100000)"
fill="#000000" stroke="none">
<path d="M1303 3401 c-169 -58 -311 -249 -313 -418 l0 -32 -37 16 c-74 31
-136 42 -217 38 -87 -4 -91 -4 -151 -24 -97 -33 -210 -140 -240 -228 -23 -67
19 -127 88 -125 26 1 43 14 97 71 80 88 135 114 233 114 59 0 78 -5 145 -39
l77 -39 1 -303 2 -303 -37 -24 c-20 -13 -139 -82 -264 -154 l-228 -132 -58 35
c-71 43 -102 72 -133 122 -49 80 -56 169 -19 262 27 69 27 104 -3 139 -20 22
-32 28 -65 27 -54 -2 -77 -23 -113 -103 -29 -63 -30 -69 -26 -191 3 -119 5
-129 36 -193 32 -64 92 -136 154 -184 l28 -21 -73 -73 c-103 -105 -147 -206
-147 -338 0 -169 92 -311 181 -279 60 22 74 83 37 164 -15 34 -22 69 -22 115
0 114 61 207 181 274 l42 23 118 -67 c287 -165 389 -224 400 -233 8 -7 11 -90
10 -310 l-2 -302 -73 -39 c-158 -85 -300 -55 -406 85 -84 112 -227 25 -162
-99 28 -55 114 -139 173 -171 113 -60 265 -73 379 -32 33 11 66 23 74 26 12 4
18 -10 28 -62 43 -225 221 -383 435 -386 76 -1 113 20 123 69 14 73 -15 104
-111 118 -75 10 -140 42 -184 90 -55 60 -72 105 -78 206 l-5 85 263 152 264
151 65 -36 c226 -125 459 -266 462 -281 6 -21 2 -105 -7 -151 -15 -77 -80
-162 -150 -195 -19 -9 -67 -23 -106 -30 -38 -8 -79 -22 -89 -31 -44 -40 -32
-123 21 -145 17 -7 60 -11 106 -8 186 8 352 153 402 350 10 40 17 81 15 91 -4
22 -1 21 71 -4 117 -42 278 -33 388 22 96 48 206 196 192 259 -14 65 -104 93
-148 47 -12 -13 -42 -45 -66 -71 -58 -64 -116 -89 -207 -90 -64 0 -80 4 -147
38 -41 21 -77 45 -79 54 -2 10 -3 146 -2 304 l0 287 25 20 c13 11 27 20 31 21
3 0 111 60 239 134 l232 134 50 -26 c77 -42 141 -109 165 -175 29 -75 28 -122
-4 -213 -36 -104 -22 -152 49 -169 89 -23 167 109 167 282 0 97 -23 178 -74
257 -33 51 -129 146 -149 146 -5 0 21 31 59 68 39 38 84 96 101 129 81 152 76
325 -13 454 -45 66 -126 64 -164 -3 -14 -25 -13 -33 10 -100 60 -176 10 -313
-147 -400 l-49 -27 -115 66 c-63 36 -130 74 -149 85 -267 154 -260 149 -261
176 -3 80 -4 559 -1 573 2 9 38 34 80 55 70 36 83 39 157 39 105 0 158 -25
223 -106 55 -68 97 -88 143 -69 63 26 71 91 22 169 -57 89 -127 143 -236 181
-104 37 -253 29 -349 -18 -43 -22 -41 -23 -53 58 -10 63 -66 177 -115 233 -90
102 -190 147 -324 148 -43 0 -67 -5 -85 -19 -76 -56 -38 -154 64 -167 75 -9
96 -16 135 -40 100 -63 138 -138 144 -280 3 -68 33 -44 -298 -235 l-228 -131
-262 150 -261 150 -3 74 c-7 176 96 299 270 322 99 13 143 98 82 159 -24 24
-33 26 -103 25 -45 0 -97 -8 -128 -18z m147 -1090 c71 -20 157 -20 214 -1 29
9 48 9 99 -4 88 -22 154 -20 240 7 l74 24 11 -60 c16 -83 61 -175 110 -222 28
-26 44 -52 48 -75 12 -66 61 -154 121 -213 31 -31 61 -57 65 -57 4 0 -23 -30
-61 -67 -72 -71 -103 -121 -121 -195 -8 -31 -25 -58 -59 -91 -65 -64 -99 -136
-116 -244 l-6 -41 -37 15 c-90 39 -185 46 -283 23 -38 -9 -57 -8 -105 6 -69
20 -159 15 -249 -14 -33 -11 -61 -19 -61 -18 -1 0 -5 23 -8 49 -13 96 -60 186
-127 247 -16 14 -30 39 -33 55 -13 86 -52 152 -140 237 l-50 48 24 17 c73 51
140 145 163 228 9 36 27 64 61 99 52 52 88 121 106 201 18 76 19 78 38 70 9
-3 46 -14 82 -24z"/>
<path d="M1625 2005 c-90 -27 -153 -80 -196 -163 -34 -67 -34 -195 0 -266 82
-166 302 -225 452 -120 196 135 168 432 -48 531 -62 29 -149 36 -208 18z"/>
</g>
</svg>
